<?xml version="1.0" standalone="no"?>
<!DOCTYPE svg PUBLIC "-//W3C//DTD SVG 20010904//EN"
 "http://www.w3.org/TR/2001/REC-SVG-20010904/DTD/svg10.dtd">
<svg version="1.0" xmlns="http://www.w3.org/2000/svg"
 width="156.000000pt" height="200.000000pt" viewBox="0 0 156.000000 200.000000"
 preserveAspectRatio="xMidYMid meet">
<metadata>
Created by potrace 1.10, written by Peter Selinger 2001-2011
</metadata>
<g transform="translate(0.000000,200.000000) scale(0.100000,-0.100000)"
fill="#000000" stroke="none">
<path d="M1208 1715 c-2 -2 -212 -5 -466 -5 -278 -1 -464 -5 -468 -11 -3 -5 3
-24 14 -42 18 -30 41 -71 146 -268 l46 -87 -30 -12 c-40 -16 -111 -97 -141
-157 -32 -67 -33 -188 -1 -254 26 -52 72 -104 114 -125 33 -17 33 -22 12 -72
-9 -20 -42 -101 -74 -179 l-57 -142 21 -19 c34 -31 53 -34 205 -33 149 1 419
-12 600 -30 118 -11 157 -3 167 37 10 39 -3 70 -92 225 -46 81 -84 150 -84
153 0 3 14 13 31 21 145 76 206 255 134 400 -27 55 -105 133 -145 147 -8 2 4
36 35 98 65 132 115 248 115 270 0 30 -67 100 -82 85z m41 -67 c16 -29 21 -17
-112 -300 l-46 -97 53 -30 c96 -54 156 -167 142 -267 -12 -92 -73 -176 -155
-215 -28 -13 -51 -27 -51 -31 0 -5 43 -84 95 -177 52 -93 95 -178 95 -189 0
-44 -18 -46 -213 -27 -100 10 -298 21 -439 24 -176 4 -261 10 -269 18 -13 13
-17 2 75 228 58 141 64 161 49 170 -50 31 -115 89 -128 115 -43 83 -38 202 11
288 26 44 115 122 140 122 18 0 18 29 1 55 -8 11 -40 70 -72 130 -88 167 -105
199 -105 208 0 4 206 6 457 5 l457 -3 15 -27z"/>
<path d="M380 1632 c0 -4 10 -23 23 -42 13 -19 59 -99 102 -178 42 -78 82
-145 86 -148 14 -8 10 -24 -6 -24 -35 0 -123 -50 -157 -89 -54 -64 -75 -179
-44 -239 29 -54 125 -121 164 -113 17 3 13 -11 -40 -139 -22 -52 -48 -118 -58
-146 -10 -28 -25 -65 -34 -82 -9 -17 -16 -35 -16 -39 0 -4 80 -8 177 -7 l178
1 3 216 2 216 -30 16 c-56 29 -87 103 -69 167 6 22 27 56 50 79 l40 40 2 259
2 260 -187 0 c-104 0 -188 -3 -188 -8z m313 -38 c16 -5 17 -25 17 -232 l-1
-227 -35 -35 c-75 -74 -76 -181 -4 -263 l38 -43 3 -169 c2 -94 0 -176 -4 -182
-9 -15 -237 -19 -237 -4 0 12 27 89 45 126 8 17 28 68 44 113 41 111 36 136
-33 167 -57 25 -89 56 -105 98 -13 35 -14 94 -2 102 5 3 12 18 16 34 7 34 47
71 107 102 24 12 51 28 61 37 26 23 21 72 -14 126 -52 83 -130 236 -124 246 6
9 198 13 228 4z"/>
<path d="M820 1375 c0 -233 2 -265 15 -265 30 0 75 -31 91 -62 34 -66 -9 -190
-75 -219 l-31 -14 0 -216 0 -215 133 -17 c139 -18 188 -20 224 -11 21 6 21 8
-23 93 -81 159 -143 301 -131 301 36 0 93 26 129 58 81 73 103 183 53 267 -28
49 -99 108 -149 125 l-33 11 89 206 c48 113 88 210 88 215 0 4 -85 8 -190 8
l-190 0 0 -265z m310 203 c0 -11 -79 -204 -121 -296 -21 -46 -25 -77 -9 -67 5
3 7 0 4 -8 -4 -13 44 -52 101 -82 10 -6 34 -30 52 -53 37 -49 44 -107 19 -165
-17 -41 -79 -96 -117 -104 -39 -8 -82 -58 -73 -87 7 -24 27 -68 91 -204 23
-52 43 -100 43 -108 0 -16 -44 -18 -105 -5 -22 5 -62 12 -90 16 -27 3 -53 12
-57 18 -5 7 -7 86 -6 178 l3 165 48 57 c37 42 52 70 62 113 17 74 2 117 -60
171 l-43 38 -3 125 c-2 69 -2 166 -1 217 l2 92 33 3 c69 7 227 -3 227 -14z"/>
<path d="M759 1041 c-25 -25 -29 -37 -29 -85 0 -60 13 -81 57 -92 22 -6 32 -1
60 29 45 50 46 105 4 148 -37 37 -55 37 -92 0z m67 -56 c9 -37 1 -60 -23 -63
-25 -4 -34 27 -20 70 10 32 34 28 43 -7z"/>
</g>
</svg>
